<!-- Generator: Adobe Illustrator 24.3.0, SVG Export Plug-In  -->
<svg version="1.1" xmlns="http://www.w3.org/2000/svg" xmlns:xlink="http://www.w3.org/1999/xlink" x="0px" y="0px"
	 width="486.44px" height="325.8px" viewBox="0 0 486.44 325.8" style="overflow:visible;enable-background:new 0 0 486.44 325.8;"
	 xml:space="preserve">
<style type="text/css">
	.st0{fill:none;}
	.st1{fill:none;stroke:#00ED77;stroke-width:0.5;}
	.st2{fill:#0091ff;}
	.st3{fill:url(#_x31_0_lpi_10_x25_);stroke:#00ED77;stroke-miterlimit:10;}
	.st4{fill:none;stroke:#00ED77;stroke-miterlimit:10;}
	.st5{fill:none;stroke:#FF2256;stroke-miterlimit:10;}
	.st6{fill:#00ED77;}
	.st7{fill:#FF2256;}
</style>
<defs>
	
		<pattern  x="-8.03" y="-81.39" width="72" height="72" patternUnits="userSpaceOnUse" id="_x31_0_lpi_10_x25_" viewBox="72.25 -72 72 72" style="overflow:visible;">
		<g>
			<rect x="72.25" y="-72" class="st0" width="72" height="72"/>
			<g>
				<line class="st1" x1="144" y1="-3.6" x2="216.5" y2="-3.6"/>
				<line class="st1" x1="144" y1="-18" x2="216.5" y2="-18"/>
				<line class="st1" x1="144" y1="-32.4" x2="216.5" y2="-32.4"/>
				<line class="st1" x1="144" y1="-46.8" x2="216.5" y2="-46.8"/>
				<line class="st1" x1="144" y1="-61.2" x2="216.5" y2="-61.2"/>
				<line class="st1" x1="144" y1="-10.8" x2="216.5" y2="-10.8"/>
				<line class="st1" x1="144" y1="-25.2" x2="216.5" y2="-25.2"/>
				<line class="st1" x1="144" y1="-39.6" x2="216.5" y2="-39.6"/>
				<line class="st1" x1="144" y1="-54" x2="216.5" y2="-54"/>
				<line class="st1" x1="144" y1="-68.4" x2="216.5" y2="-68.4"/>
			</g>
			<g>
				<line class="st1" x1="72" y1="-3.6" x2="144.5" y2="-3.6"/>
				<line class="st1" x1="72" y1="-18" x2="144.5" y2="-18"/>
				<line class="st1" x1="72" y1="-32.4" x2="144.5" y2="-32.4"/>
				<line class="st1" x1="72" y1="-46.8" x2="144.5" y2="-46.8"/>
				<line class="st1" x1="72" y1="-61.2" x2="144.5" y2="-61.2"/>
				<line class="st1" x1="72" y1="-10.8" x2="144.5" y2="-10.8"/>
				<line class="st1" x1="72" y1="-25.2" x2="144.5" y2="-25.2"/>
				<line class="st1" x1="72" y1="-39.6" x2="144.5" y2="-39.6"/>
				<line class="st1" x1="72" y1="-54" x2="144.5" y2="-54"/>
				<line class="st1" x1="72" y1="-68.4" x2="144.5" y2="-68.4"/>
			</g>
			<g>
				<line class="st1" x1="0" y1="-3.6" x2="72.5" y2="-3.6"/>
				<line class="st1" x1="0" y1="-18" x2="72.5" y2="-18"/>
				<line class="st1" x1="0" y1="-32.4" x2="72.5" y2="-32.4"/>
				<line class="st1" x1="0" y1="-46.8" x2="72.5" y2="-46.8"/>
				<line class="st1" x1="0" y1="-61.2" x2="72.5" y2="-61.2"/>
				<line class="st1" x1="0" y1="-10.8" x2="72.5" y2="-10.8"/>
				<line class="st1" x1="0" y1="-25.2" x2="72.5" y2="-25.2"/>
				<line class="st1" x1="0" y1="-39.6" x2="72.5" y2="-39.6"/>
				<line class="st1" x1="0" y1="-54" x2="72.5" y2="-54"/>
				<line class="st1" x1="0" y1="-68.4" x2="72.5" y2="-68.4"/>
			</g>
		</g>
	</pattern>
</defs>
<polygon class="st2" points="275.36,2.31 275.36,2.31 386.79,162.9 275.36,323.48 275.36,323.48 486.44,162.9 "/>
<g>
	<polygon class="st3" points="213.29,162.9 2.21,2.31 113.64,162.9 2.21,323.48 	"/>
	<path class="st4" d="M213.29,162.9l-22.82,17.36c-3.8-4.99-5.85-11.09-5.85-17.36c0-6.27,2.06-12.37,5.85-17.36L213.29,162.9z"/>
	<path class="st5" d="M113.64,162.9l-16.35,23.56c-7.71-5.35-12.33-14.17-12.33-23.56c0-9.39,4.61-18.2,12.33-23.56L113.64,162.9z"
		/>
	<g>
		<path class="st6" d="M166.68,163.32l-4.73-8.24h2.9l2.2,4.05c0.43,0.78,0.82,1.53,1.36,2.55h0.1c0.45-1.03,0.8-1.77,1.2-2.55
			l2.13-4.05h2.77l-4.73,8.36l5.06,8.67h-2.92l-2.36-4.29c-0.47-0.86-0.92-1.73-1.47-2.77h-0.1c-0.47,1.04-0.91,1.9-1.34,2.77
			l-2.34,4.29h-2.78L166.68,163.32z"/>
	</g>
	<g>
		<path class="st7" d="M67.32,166.12l-5.65-11.04h2.78l2.33,4.79c0.61,1.32,1.19,2.6,1.84,3.95h0.1c0.64-1.35,1.28-2.63,1.9-3.95
			l2.27-4.79h2.69l-5.65,11.04v5.99h-2.61V166.12z"/>
	</g>
	<polygon class="st5" points="2.21,2.31 113.64,162.9 2.21,323.48 	"/>
</g>
</svg>
