<!-- Generator: Adobe Illustrator 24.3.0, SVG Export Plug-In  -->
<svg version="1.1" xmlns="http://www.w3.org/2000/svg" xmlns:xlink="http://www.w3.org/1999/xlink" x="0px" y="0px"
	 width="285.97px" height="481.47px" viewBox="0 0 285.97 481.47"
	 style="overflow:visible;enable-background:new 0 0 285.97 481.47;" xml:space="preserve">
<style type="text/css">
	.st0{fill:#0091ff50;}
	.st1{opacity:0.51;}
	.st2{opacity:0.51;fill:none;stroke:#00Ed77;stroke-width:2;stroke-miterlimit:10;}
	.st3{opacity:0.51;fill:none;stroke:#00Ed77;stroke-width:2.8023;stroke-miterlimit:10;}
	.st4{opacity:0.51;fill:none;stroke:#00Ed77;stroke-width:2.2361;stroke-miterlimit:10;}
	.st5{opacity:0.51;fill:none;stroke:#00Ed77;stroke-width:2.3452;stroke-miterlimit:10;}
	.st6{opacity:0.51;fill:none;stroke:#00Ed77;stroke-width:2.7246;stroke-miterlimit:10;}
	.st7{fill:#0091ff;}
</style>
<defs>
</defs>
<g>
	<g>
		<polygon class="st0" points="197.54,161.03 44.94,44.94 44.94,44.94 125.49,161.03 44.94,277.13 44.94,277.13 197.54,393.23 
			197.54,393.23 116.98,277.13 197.54,161.03 197.54,161.03 		"/>
	</g>
	<circle class="st7" cx="176.04" cy="277.13" r="21.77"/>
</g>
<g class="st1">
	<circle cx="262.84" cy="284.39" r="21.77"/>
	<circle cx="262.84" cy="371.46" r="21.77"/>
	<circle cx="262.84" cy="327.92" r="21.77"/>
	<circle cx="262.84" cy="197.31" r="21.77"/>
	<circle cx="262.84" cy="153.78" r="21.77"/>
	<circle cx="262.84" cy="110.24" r="21.77"/>
	<circle cx="262.84" cy="66.71" r="21.77"/>
	<circle cx="262.84" cy="240.85" r="21.77"/>
</g>
<g>
	<rect x="44.94" y="44.94" class="st2" width="152.6" height="348.29"/>
	<rect x="1.4" y="1.4" class="st3" width="239.67" height="435.36"/>
	<rect x="44.94" y="1.4" class="st4" width="152.6" height="435.36"/>
	<rect x="44.94" y="1.4" class="st5" width="152.6" height="478.9"/>
	<rect x="1.4" y="44.94" class="st6" width="283.21" height="348.29"/>
</g>
<g>
	<circle class="st1" cx="23.17" cy="23.17" r="21.77"/>
	<circle class="st1" cx="23.17" cy="414.99" r="21.77"/>
	<circle class="st1" cx="219.31" cy="414.99" r="21.77"/>
	<circle class="st1" cx="219.31" cy="23.17" r="21.77"/>
</g>
<g>
	<circle class="st1" cx="153.78" cy="458.53" r="21.77"/>
	<circle class="st1" cx="66.71" cy="458.53" r="21.77"/>
	<circle class="st1" cx="110.24" cy="458.53" r="21.77"/>
	<path class="st1" d="M197.31,480.3c-12.02,0-21.77-9.75-21.77-21.77c0-12.02,9.75-21.77,21.77-21.77"/>
</g>
<line class="st5" x1="1.03" y1="277.13" x2="283.37" y2="277.13"/>
</svg>
