<!-- Generator: Adobe Illustrator 24.3.0, SVG Export Plug-In  -->
<svg version="1.1" xmlns="http://www.w3.org/2000/svg" xmlns:xlink="http://www.w3.org/1999/xlink" x="0px" y="0px"
	 width="367.13px" height="369.51px" viewBox="0 0 367.13 369.51"
	 style="overflow:visible;enable-background:new 0 0 367.13 369.51;" xml:space="preserve">
<style type="text/css">
	.st0{fill:#131315;}
	.st1{fill:#FFFFFF;}
	.st2{opacity:0.35;}
	.st3{opacity:0.85;fill:none;stroke:#00FFFF;stroke-width:1.9931;stroke-miterlimit:10;}
	.st4{opacity:0.85;fill:none;stroke:#00FFFF;stroke-width:2.4978;stroke-miterlimit:10;}
	.st5{opacity:0.85;fill:none;stroke:#00FFFF;stroke-width:2.7926;stroke-miterlimit:10;}
	.st6{opacity:0.85;fill:none;stroke:#00FFFF;stroke-width:2.2283;stroke-miterlimit:10;}
</style>
<defs>
</defs>
<rect x="0" y="1.19" class="st0" width="367.13" height="367.13"/>
<g>
	<g>
		<polygon class="st1" points="247.61,135.69 119.29,38.07 119.29,38.07 187.03,135.69 119.29,233.31 119.29,233.31 247.61,330.93 
			247.61,330.93 179.87,233.31 247.61,135.69 247.61,135.69 		"/>
	</g>
	<circle class="st1" cx="229.53" cy="233.31" r="18.3"/>
</g>
<g class="st2">
	<rect x="119.3" y="38.07" class="st3" width="128.54" height="293.37"/>
	<rect x="82.62" y="38.07" class="st4" width="201.88" height="293.37"/>
	<rect x="82.62" y="1.4" class="st5" width="201.88" height="366.71"/>
	<rect x="119.3" y="1.4" class="st6" width="128.54" height="366.71"/>
	<circle class="st1" cx="100.96" cy="19.73" r="18.34"/>
	<circle class="st1" cx="100.96" cy="349.78" r="18.34"/>
	<circle class="st1" cx="266.17" cy="349.78" r="18.34"/>
	<circle class="st1" cx="266.17" cy="19.73" r="18.34"/>
</g>
</svg>
