<!-- Generator: Adobe Illustrator 24.3.0, SVG Export Plug-In  -->
<svg version="1.1" xmlns="http://www.w3.org/2000/svg" xmlns:xlink="http://www.w3.org/1999/xlink" x="0px" y="0px"
	 width="410.03px" height="334.52px" viewBox="0 0 410.03 334.52"
	 style="overflow:visible;enable-background:new 0 0 410.03 334.52;" xml:space="preserve">
<style type="text/css">
	.st0{fill:#0091ff;}
	.st1{fill:#FFC900;}
	.st2{opacity:0.06;}
	.st3{fill:#FF2256;}
	.st4{fill:#00Ed77;}
</style>
<defs>
</defs>
<g>
	<ellipse class="st0" cx="354.27" cy="209.57" rx="24.38" ry="19.65"/>
	<polygon class="st1" points="378.35,104.78 378.35,104.78 288.12,209.56 378.35,314.35 378.35,314.35 207.43,209.56 	"/>
	<polygon class="st0" points="207.43,0 207.43,0 297.66,104.78 207.43,209.56 207.43,209.56 378.35,104.78 	"/>
	<polygon class="st2" points="378.35,104.78 353.84,133.24 207.43,209.56 	"/>
</g>
<g>
	<circle class="st0" cx="118.33" cy="209.57" r="19.65"/>
	<polygon class="st1" points="137.73,104.78 137.73,104.78 65.02,209.56 137.73,314.35 137.73,314.35 0,209.56 	"/>
	<polygon class="st0" points="0,0 0,0 72.71,104.78 0,209.56 0,209.56 137.73,104.78 	"/>
	<polygon class="st2" points="137.73,104.78 117.98,133.24 0,209.56 	"/>
</g>
<polygon class="st3" points="410.03,249.57 387.37,226.92 356.23,258.07 325.08,226.92 302.43,249.57 333.57,280.72 302.43,311.87 
	325.08,334.52 356.23,303.37 387.37,334.52 410.03,311.87 378.88,280.72 "/>
<polygon class="st4" points="162.16,226.92 99.87,289.22 80.04,269.39 57.39,292.05 77.21,311.87 99.87,334.52 122.52,311.87 
	184.82,249.57 "/>
</svg>
