<!-- Generator: Adobe Illustrator 24.3.0, SVG Export Plug-In  -->
<svg version="1.1" xmlns="http://www.w3.org/2000/svg" xmlns:xlink="http://www.w3.org/1999/xlink" x="0px" y="0px"
	 width="421.93px" height="421.92px" viewBox="0 0 421.93 421.92"
	 style="overflow:visible;enable-background:new 0 0 421.93 421.92;" xml:space="preserve">
<style type="text/css">
	.st0{fill:#212123;}
	.st1{fill:none;stroke:#00Ed77;stroke-width:0.25;stroke-miterlimit:10;}
	.st2{fill:none;stroke:#FF2256;stroke-width:0.3;stroke-miterlimit:10;}
	.st3{fill:#0091ff;}
</style>
<defs>
</defs>
<rect x="11.5" y="11.5" class="st0" width="398.93" height="398.93"/>
<g>
	<g>
		<polygon class="st1" points="276.68,160.96 145.24,60.96 214.63,160.96 145.24,260.96 		"/>
		<path class="st1" d="M276.68,160.96l-14.21,10.81c-2.36-3.11-3.65-6.91-3.65-10.81c0-3.9,1.28-7.7,3.65-10.81L276.68,160.96z"/>
		<path class="st1" d="M214.63,160.96l-10.18,14.67c-4.8-3.33-7.68-8.82-7.68-14.67c0-5.85,2.87-11.34,7.68-14.67L214.63,160.96z"/>
		<polygon class="st1" points="145.24,60.96 214.63,160.96 145.24,260.96 		"/>
	</g>
	<g>
		<polygon class="st1" points="145.24,260.96 276.68,360.96 207.3,260.96 276.68,160.96 		"/>
		<path class="st1" d="M145.24,260.96l14.21-10.81c2.36,3.11,3.65,6.91,3.65,10.81c0,3.9-1.28,7.7-3.65,10.81L145.24,260.96z"/>
		<path class="st1" d="M207.3,260.96l10.18-14.67c4.8,3.33,7.68,8.82,7.68,14.67c0,5.85-2.87,11.34-7.68,14.67L207.3,260.96z"/>
		<polygon class="st1" points="276.68,360.96 207.3,260.96 276.68,160.96 		"/>
	</g>
	<polyline class="st2" points="276.68,360.96 173.23,257.5 246.54,162.26 145.24,60.96 	"/>
	<circle class="st1" cx="257.93" cy="260.96" r="18.75"/>
</g>
<rect x="107.74" y="60.96" class="st1" width="206.44" height="300"/>
<circle class="st1" cx="126.49" cy="42.21" r="18.75"/>
<circle class="st1" cx="126.49" cy="379.71" r="18.75"/>
<circle class="st1" cx="295.43" cy="379.71" r="18.75"/>
<circle class="st1" cx="295.43" cy="42.21" r="18.75"/>
<rect x="107.74" y="23.46" class="st1" width="206.44" height="375"/>
<rect x="145.24" y="60.96" class="st1" width="131.44" height="200"/>
<rect x="145.24" y="60.96" class="st1" width="131.44" height="300"/>
<rect x="145.24" y="23.46" class="st1" width="131.44" height="375"/>
<line class="st1" x1="380.39" y1="11.5" x2="103.59" y2="410.43"/>
<line class="st1" x1="317.65" y1="11.5" x2="40.84" y2="410.43"/>
<line class="st1" x1="310.42" y1="409.58" x2="34.2" y2="11.5"/>
<line class="st1" x1="387.14" y1="409.58" x2="110.92" y2="11.5"/>
<line class="st1" x1="341.7" y1="410.43" x2="11.5" y2="159.21"/>
<line class="st1" x1="410.43" y1="262.71" x2="80.23" y2="11.5"/>
<path class="st3" d="M421.93,421.92H0V0h421.93V421.92z M23,398.92h375.93V23H23V398.92z"/>
</svg>
