<!-- Generator: Adobe Illustrator 24.3.0, SVG Export Plug-In  -->
<svg version="1.1" xmlns="http://www.w3.org/2000/svg" xmlns:xlink="http://www.w3.org/1999/xlink" x="0px" y="0px"
	 width="500.06px" height="500px" viewBox="0 0 500.06 500" style="overflow:visible;enable-background:new 0 0 500.06 500;"
	 xml:space="preserve">
<style type="text/css">
	.st0{fill:#212123;}
	.st1{fill:#263B52;}
	.st2{fill:#FF2256;}
	.st3{fill:#0091ff;}
	.st4{fill:#00Ed77;}
	.st5{fill:#FFC900;}
	.st6{opacity:0.56;fill:#546476;}
	.st7{opacity:0.5;fill:#546476;}
</style>
<defs>
</defs>
<rect class="st0" width="500" height="500"/>
<polygon class="st1" points="335.98,500 500.06,335.93 499.98,500 "/>
<g>
	<rect class="st2" width="125" height="20"/>
	<rect x="125" class="st3" width="125" height="20"/>
	<rect x="375" class="st4" width="125" height="20"/>
	<rect x="250" class="st5" width="125" height="20"/>
</g>
<g>
	<rect y="480" class="st2" width="125" height="20"/>
	<rect x="125" y="480" class="st3" width="125" height="20"/>
	<rect x="375" y="480" class="st4" width="125" height="20"/>
	<rect x="250" y="480" class="st5" width="125" height="20"/>
</g>
<g>
	<circle class="st3" cx="464.01" cy="448.39" r="3.52"/>
	<polygon class="st5" points="467.49,429.59 467.49,429.59 454.45,448.39 467.49,467.19 467.49,467.19 442.78,448.39 	"/>
	<polygon class="st3" points="442.78,410.8 442.78,410.8 455.83,429.59 442.78,448.39 442.78,448.39 467.49,429.59 	"/>
</g>
<g>
	<rect x="213.8" y="213.8" class="st6" width="72.4" height="72.4"/>
	<path class="st7" d="M237.76,221.5c0,8.98-7.28,16.26-16.26,16.26v40.74h57.01V221.5H237.76z"/>
	<path class="st0" d="M221.5,257.17c0,0,3.81-4.61,16.92-2.67c13.11,1.94,12.25,2.9,25.49-6.55c5.1-3.64,14.6-0.49,14.6,8.01
		c0,8.5,0,22.55,0,22.55H221.5V257.17z"/>
	<path class="st0" d="M237.76,221.5H221.5v16.26C230.48,237.76,237.76,230.48,237.76,221.5z"/>
</g>
</svg>
