<!-- Generator: Adobe Illustrator 24.3.0, SVG Export Plug-In  -->
<svg version="1.1" xmlns="http://www.w3.org/2000/svg" xmlns:xlink="http://www.w3.org/1999/xlink" x="0px" y="0px" width="1920px"
	 height="1080px" viewBox="0 0 1920 1080" style="overflow:visible;enable-background:new 0 0 1920 1080;" xml:space="preserve">
<style type="text/css">
	.st0{fill:#212123;}
	.st1{fill:#FF2256;}
	.st2{fill:#FFC900;}
	.st3{fill:#0091ff;}
	.st4{fill:#FFFFFF;}
</style>
<defs>
</defs>
<rect class="st0" width="1920" height="1080"/>
<g>
	<g>
		<polygon class="st1" points="1326.04,452.71 1291.19,432.59 1291.19,472.83 		"/>
		<polygon class="st2" points="772.52,381.29 701.1,381.29 701.1,309.87 665.48,345.48 665.48,381.38 629.58,381.38 593.96,417 
			665.38,417 593.96,488.42 701.1,417 808.23,417 808.23,309.87 		"/>
		<polygon class="st3" points="1290.33,302.92 1204.01,370.19 1290.33,345.58 1325.35,381.29 1218.9,381.29 1188.25,381.29 
			1188.25,309.87 1116.83,309.87 1081.12,381.29 1116.83,345.58 1152.54,345.58 1152.54,381.29 1081.12,381.29 1040.35,381.29 
			1040.35,309.87 1004.64,381.29 933.22,381.29 933.22,309.87 897.37,381.29 861.8,381.29 826.08,417 933.22,417 1081.12,417 
			1188.25,417 1218.9,417 1433.17,417 		"/>
		<g>
			<polygon class="st3" points="790.37,452.71 826.08,473.33 826.08,432.09 			"/>
			<polygon class="st3" points="790.37,473.33 754.66,452.71 790.37,432.09 			"/>
		</g>
		<g>
			<polygon class="st2" points="1058.21,452.71 1022.49,473.33 1022.49,432.09 			"/>
			<polygon class="st2" points="986.78,473.33 1022.49,452.71 986.78,432.09 			"/>
		</g>
		<polygon class="st1" points="558.25,309.87 593.96,381.29 522.54,417 522.54,488.42 486.83,381.29 558.25,381.29 522.54,345.58 		
			"/>
	</g>
	<g>
		<g>
			<rect x="1270.39" y="533.74" class="st4" width="13.39" height="84.59"/>
			<polygon class="st4" points="1144.08,548.9 1144.08,564.36 1157.47,556.63 			"/>
			<path class="st4" d="M1246.06,604.86h-55.61v-22.34h26.26l12.26,10.61l0-24l-51.96,0l0,35.73h-19.52v-35.73h-13.39v35.73h-20.43
				v-35.73h-51.48l-22.5,18.83v-18.83h-0.06h-13.32l-0.06,35.73h-19.36v-35.73h-13.39v62.02v0.32l-14.8,17.09h14.8l13.39-15.46
				v-14.78h242.58v-84.59h-13.39V604.86z M1110.27,604.86h-60.6l26.07-22.71h34.53V604.86z"/>
			<rect x="939.66" y="533.74" class="st4" width="13.39" height="84.59"/>
			<polygon class="st4" points="659.36,621.77 649.07,615.86 649.07,631.37 659.36,625.36 659.36,631.37 672.75,623.55 
				659.36,615.86 			"/>
			<path class="st4" d="M915.33,604.86h-55.6v-22.34h26.32l12.2,10.6v-23.99h-51.96v35.73h-19.02v-71.12h-13.39v71.12h-21.08v-35.73
				h0v0h-51.91l-0.13,35.73l-18.45,0v-35.73h0v0h-45.13v35.73h-40.95l54.33,13.46v-35.81h18.35l-0.04,35.73l219.84,0.08v-84.59
				h-13.39V604.86z M779.48,604.86h-25.2v-22.34h25.2V604.86z"/>
		</g>
		<g>
			<polygon class="st4" points="977.12,750.29 987.41,744.38 987.41,759.89 977.12,753.88 977.12,759.89 963.73,752.07 
				977.12,744.38 			"/>
			<polygon class="st4" points="1184.06,733.38 1128.45,733.38 1128.45,711.04 1154.77,711.04 1166.97,721.64 1166.97,697.65 
				1166.97,697.65 1166.97,697.65 1115,697.65 1115,733.38 1096.56,733.38 1096.56,697.65 1083.17,697.65 1083.17,759.66 
				1068.36,777.08 1083.17,777.08 1096.56,761.62 1096.56,746.84 1197.45,746.83 1197.45,662.25 1184.06,662.25 			"/>
			<polygon class="st4" points="1208.4,746.83 1208.4,746.83 1208.4,746.84 1221.79,746.83 1221.79,662.25 1208.4,662.25 			"/>
			<polygon class="st4" points="1070.7,759.82 1057.32,752.13 1057.32,767.64 			"/>
			<polygon class="st4" points="1070.64,697.65 1057.25,697.65 1057.25,733.38 1036.95,733.38 1036.95,697.65 1036.95,697.65 
				1036.95,697.65 991.83,697.65 991.83,733.38 950.88,733.38 1005.22,746.84 1005.22,711.03 1023.57,711.03 1023.53,746.76 
				1070.64,746.77 			"/>
			<polygon class="st4" points="892.42,662.25 892.42,662.25 892.42,746.83 892.42,746.83 892.42,746.84 905.8,746.83 905.8,662.25 
							"/>
			<polygon class="st4" points="867.65,662.25 867.65,662.25 867.65,733.38 842.67,733.38 842.67,662.25 829.28,662.25 
				829.28,733.44 815.04,733.44 815.04,746.83 815.04,746.83 815.04,746.84 881.04,746.83 881.04,662.25 			"/>
			<path class="st4" d="M752.37,697.65v49.19h38.67v12.82l-14.8,17.41h14.8l13.39-15.46v-63.97L752.37,697.65z M790.97,733.38
				h-25.14v-22.71h25.14V733.38z"/>
			<polygon class="st4" points="730.01,662.25 730.01,759.71 725.86,764.57 698.21,764.57 698.21,777.07 730.01,777.08 743.4,761.7 
				743.4,662.25 			"/>
		</g>
	</g>
</g>
<polygon class="st2" points="261.43,341.11 261.43,341.11 123.42,540 261.43,738.89 261.43,738.89 0,540 "/>
<polygon class="st3" points="1658.57,341.11 1658.57,341.11 1796.58,540 1658.57,738.89 1658.57,738.89 1920,540 "/>
<circle class="st3" cx="1767.33" cy="970.37" r="60.58"/>
<g>
	<path class="st4" d="M1753.56,989.89h12.51v-31.82h-9.72v-3.67c5.1-0.68,8.36-1.7,11.15-3.2h4.22v38.69H1783v4.69h-29.44V989.89z"
		/>
</g>
</svg>
