<!-- Generator: Adobe Illustrator 24.3.0, SVG Export Plug-In  -->
<svg version="1.1" xmlns="http://www.w3.org/2000/svg" xmlns:xlink="http://www.w3.org/1999/xlink" x="0px" y="0px"
	 width="966.99px" height="91.29px" viewBox="0 0 966.99 91.29" style="overflow:visible;enable-background:new 0 0 966.99 91.29;"
	 xml:space="preserve">
<style type="text/css">
	.st0{fill:#212123;}
	.st1{fill:#212123;}
	.st2{fill:#212123;}
	.st3{fill:#212123;}
</style>
<defs>
</defs>
<g>
	<polygon class="st0" points="221.75,70 229.94,65.3 229.94,77.63 221.75,72.85 221.75,77.63 211.11,71.41 221.75,65.3 	"/>
	<rect x="956.34" y="0" class="st1" width="10.64" height="67.25"/>
	<polygon class="st2" points="855.92,12.06 855.92,24.34 866.56,18.2 	"/>
	<path class="st1" d="M936.99,56.55h-44.22V38.78h20.88l9.74,8.44l0-19.08l-41.32,0l0,28.41h-15.52V28.14h-10.64v28.41h-16.24V28.14
		h-40.93l-17.89,14.97V28.14h-0.05h-10.59l-0.05,28.41h-15.4V28.14h-10.64v49.31v0.25l-11.77,13.59h11.77L754.76,79V67.25h192.87V0
		h-10.64V56.55z M829.03,56.55h-48.18l20.73-18.05h27.45V56.55z"/>
	<rect x="693.39" y="0" class="st1" width="10.64" height="67.25"/>
	<polygon class="st0" points="470.52,70 462.34,65.3 462.34,77.63 470.52,72.85 470.52,77.63 481.17,71.41 470.52,65.3 	"/>
	<path class="st1" d="M674.04,56.55h-44.21V38.78h20.92l9.7,8.43V28.14h-41.31v28.41h-15.12V0h-10.65v56.55h-16.76V28.14h0v0h-41.27
		l-0.1,28.41l-14.67,0V28.14h0v0h-35.88v28.41h-32.56l43.2,10.7V38.78h14.59l-0.03,28.41l174.79,0.06V0h-10.64V56.55z M566.03,56.55
		h-20.04V38.78h20.04V56.55z"/>
	<polygon class="st1" points="386.29,56.55 342.08,56.55 342.08,38.78 363,38.78 372.7,47.22 372.7,28.14 372.7,28.14 372.7,28.14 
		331.38,28.14 331.38,56.55 316.72,56.55 316.72,28.14 306.07,28.14 306.07,77.45 294.3,91.29 306.07,91.29 316.72,79 316.72,67.25 
		396.94,67.24 396.94,0 386.29,0 	"/>
	<polygon class="st1" points="405.64,67.24 405.64,67.24 405.64,67.25 416.29,67.24 416.29,0 405.64,0 	"/>
	<polygon class="st3" points="296.16,77.57 285.52,71.46 285.52,83.79 	"/>
	<polygon class="st1" points="296.11,28.14 285.47,28.14 285.47,56.55 269.33,56.55 269.33,28.14 269.33,28.14 269.33,28.14 
		233.45,28.14 233.45,56.55 200.89,56.55 244.09,67.25 244.09,38.78 258.69,38.78 258.66,67.19 296.11,67.2 	"/>
	<polygon class="st1" points="154.41,0 154.41,0 154.41,67.24 154.41,67.24 154.41,67.25 165.05,67.24 165.05,0 	"/>
	<polygon class="st1" points="134.72,0 134.72,0 134.72,56.55 114.86,56.55 114.86,0 104.21,0 104.21,56.6 92.89,56.6 92.89,67.24 
		92.89,67.24 92.89,67.25 145.36,67.24 145.36,0 	"/>
	<path class="st1" d="M43.07,28.14v39.11h30.74v10.19L62.04,91.29h11.77L84.45,79V28.14L43.07,28.14z M73.75,56.55H53.76V38.49
		h19.99V56.55z"/>
	<polygon class="st1" points="25.29,0 25.29,77.48 21.98,81.35 0,81.35 0,91.29 25.29,91.29 35.93,79.07 35.93,0 	"/>
</g>
</svg>
