<!-- Generator: Adobe Illustrator 24.3.0, SVG Export Plug-In  -->
<svg version="1.1" xmlns="http://www.w3.org/2000/svg" xmlns:xlink="http://www.w3.org/1999/xlink" x="0px" y="0px"
	 width="1976.44px" height="392.23px" viewBox="0 0 1976.44 392.23"
	 style="overflow:visible;enable-background:new 0 0 1976.44 392.23;" xml:space="preserve">
<style type="text/css">
	.st0{fill:none;stroke:#00Ed77;stroke-width:6;stroke-miterlimit:10;}
	.st1{fill:#212123;}
</style>
<defs>
</defs>
<rect x="3" y="272.99" class="st0" width="1970.44" height="83.78"/>
<g>
	<polygon class="st1" points="1750.37,314.88 1677.82,272.99 1677.82,356.77 	"/>
	<g>
		<polygon class="st1" points="1192.7,314.88 1118.34,357.81 1118.34,271.95 		"/>
		<polygon class="st1" points="1043.99,357.81 1118.34,314.88 1043.99,271.95 		"/>
	</g>
	<polygon class="st1" points="1676.02,3 1496.28,143.06 1676.02,91.81 1748.94,166.16 1527.3,166.16 1463.48,166.16 1463.48,17.45 
		1314.77,17.45 1240.41,166.16 1314.77,91.81 1389.12,91.81 1389.12,166.16 1240.41,166.16 1155.52,166.16 1155.52,17.45 
		1081.17,166.16 932.45,166.16 932.45,17.45 857.81,166.16 783.74,166.16 709.38,240.52 932.45,240.52 1240.41,240.52 
		1463.48,240.52 1527.3,240.52 1973.44,240.52 	"/>
	<polygon class="st1" points="597.85,166.16 449.14,166.16 449.14,17.45 374.98,91.61 374.98,166.36 300.23,166.36 226.07,240.52 374.78,240.52 
		226.07,389.23 449.14,240.52 672.21,240.52 672.21,17.45 	"/>
	<g>
		<polygon class="st1" points="635.03,314.88 709.38,357.81 709.38,271.95 		"/>
		<polygon class="st1" points="635.03,357.81 560.67,314.88 635.03,271.95 		"/>
	</g>
	<polygon class="st1" points="151.71,17.45 226.07,166.16 77.36,240.52 77.36,389.23 3,166.16 151.71,166.16 77.36,91.81 	"/>
</g>
<rect x="3" y="3" class="st0" width="1970.44" height="386.23"/>
<rect x="3" y="166.16" class="st0" width="1970.44" height="74.36"/>
<rect x="374.98" y="3" class="st0" width="74.16" height="386.23"/>
<rect x="226.07" y="3" class="st0" width="74.16" height="386.23"/>
<rect x="597.85" y="3" class="st0" width="74.16" height="386.23"/>
<rect x="857.81" y="3" class="st0" width="74.16" height="386.23"/>
<rect x="709.38" y="3" class="st0" width="74.16" height="386.23"/>
<rect x="1081.17" y="3" class="st0" width="74.16" height="386.23"/>
<rect x="1389.12" y="3" class="st0" width="74.16" height="386.23"/>
<rect x="1677.82" y="3" class="st0" width="74.16" height="386.23"/>
</svg>
