<!-- Generator: Adobe Illustrator 24.3.0, SVG Export Plug-In  -->
<svg version="1.1" xmlns="http://www.w3.org/2000/svg" xmlns:xlink="http://www.w3.org/1999/xlink" x="0px" y="0px" width="2000px"
	 viewBox="0 0 646.1 126.64" style="overflow:visible;enable-background:new 0 0 646.1 126.64;"
	 xml:space="preserve">
<style type="text/css">
	.st0{fill:#FF2256;}
	.st1{fill:#FFC900;}
	.st2{fill:#0091ff;}
</style>
<defs>
</defs>
<g>
	<polygon class="st0" points="572.96,102.26 549.17,88.53 549.17,116 	"/>
	<polygon class="st1" points="195.05,53.5 146.29,53.5 146.29,4.74 121.97,29.06 121.97,53.56 97.46,53.56 73.14,77.88 
		121.91,77.88 73.14,126.64 146.29,77.88 219.43,77.88 219.43,4.74 	"/>
	<polygon class="st2" points="548.58,0 489.64,45.93 548.58,29.12 572.49,53.5 499.82,53.5 478.89,53.5 478.89,4.74 430.13,4.74 
		405.74,53.5 430.13,29.12 454.51,29.12 454.51,53.5 405.74,53.5 377.91,53.5 377.91,4.74 353.53,53.5 304.77,53.5 304.77,4.74 
		280.29,53.5 256,53.5 231.62,77.88 304.77,77.88 405.74,77.88 478.89,77.88 499.82,77.88 646.1,77.88 	"/>
	<g>
		<polygon class="st2" points="207.24,102.26 231.62,116.34 231.62,88.19 		"/>
		<polygon class="st2" points="207.24,116.34 182.86,102.26 207.24,88.19 		"/>
	</g>
	<g>
		<polygon class="st1" points="390.1,102.26 365.72,116.34 365.72,88.19 		"/>
		<polygon class="st1" points="341.34,116.34 365.72,102.26 341.34,88.19 		"/>
	</g>
	<polygon class="st0" points="48.76,4.74 73.14,53.5 24.38,77.88 24.38,126.64 0,53.5 48.76,53.5 24.38,29.12 	"/>
</g>
</svg>
